# Blender v2.83.5 OBJ File: ''
# www.blender.org
mtllib Cable_Latch.mtl
o Cable_Latch_Cylinder.003
v -0.002336 0.084690 -0.026381
v -0.002167 0.093806 -0.026027
v -0.002370 0.084676 -0.026013
v -0.002201 0.093792 -0.025659
v -0.002474 0.084664 -0.025658
v -0.002305 0.093780 -0.025305
v -0.002646 0.084655 -0.025331
v -0.002477 0.093771 -0.024977
v -0.002878 0.084648 -0.025043
v -0.002709 0.093764 -0.024690
v -0.003162 0.084644 -0.024806
v -0.002993 0.093760 -0.024453
v -0.003487 0.084643 -0.024629
v -0.003318 0.093759 -0.024276
v -0.003840 0.084646 -0.024519
v -0.003671 0.093761 -0.024165
v -0.004208 0.084651 -0.024480
v -0.004039 0.093766 -0.024126
v -0.004576 0.084659 -0.024513
v -0.004407 0.093775 -0.024159
v -0.004931 0.084670 -0.024617
v -0.004762 0.093785 -0.024263
v -0.005258 0.084682 -0.024788
v -0.005089 0.093798 -0.024435
v -0.005546 0.084697 -0.025020
v -0.005377 0.093812 -0.024667
v -0.005783 0.084712 -0.025304
v -0.005614 0.093828 -0.024950
v -0.005960 0.084728 -0.025628
v -0.005791 0.093843 -0.025275
v -0.006070 0.084744 -0.025981
v -0.005901 0.093859 -0.025628
v -0.006109 0.084759 -0.026349
v -0.005940 0.093874 -0.025995
v -0.006075 0.084772 -0.026717
v -0.005907 0.093888 -0.026363
v -0.005971 0.084784 -0.027071
v -0.005802 0.093900 -0.026718
v -0.005799 0.084794 -0.027399
v -0.005630 0.093909 -0.027045
v -0.005567 0.084800 -0.027686
v -0.005398 0.093916 -0.027333
v -0.005283 0.084804 -0.027923
v -0.005114 0.093920 -0.027570
v -0.004958 0.084805 -0.028100
v -0.004789 0.093921 -0.027747
v -0.004605 0.084803 -0.028211
v -0.004436 0.093918 -0.027857
v -0.004237 0.084798 -0.028250
v -0.004069 0.093913 -0.027896
v -0.003869 0.084789 -0.028217
v -0.003700 0.093905 -0.027863
v -0.003514 0.084779 -0.028113
v -0.003346 0.093894 -0.027759
v -0.003187 0.084766 -0.027941
v -0.003018 0.093882 -0.027588
v -0.002899 0.084752 -0.027709
v -0.002730 0.093867 -0.027356
v -0.002662 0.084736 -0.027426
v -0.002494 0.093852 -0.027072
v -0.002485 0.084721 -0.027101
v -0.002317 0.093836 -0.026748
v -0.002375 0.084705 -0.026748
v -0.002207 0.093821 -0.026395
vt 1.000000 0.500000
vt 1.000000 1.000000
vt 0.968750 1.000000
vt 0.968750 0.500000
vt 0.937500 1.000000
vt 0.937500 0.500000
vt 0.906250 1.000000
vt 0.906250 0.500000
vt 0.875000 1.000000
vt 0.875000 0.500000
vt 0.843750 1.000000
vt 0.843750 0.500000
vt 0.812500 1.000000
vt 0.812500 0.500000
vt 0.781250 1.000000
vt 0.781250 0.500000
vt 0.750000 1.000000
vt 0.750000 0.500000
vt 0.718750 1.000000
vt 0.718750 0.500000
vt 0.687500 1.000000
vt 0.687500 0.500000
vt 0.656250 1.000000
vt 0.656250 0.500000
vt 0.625000 1.000000
vt 0.625000 0.500000
vt 0.593750 1.000000
vt 0.593750 0.500000
vt 0.562500 1.000000
vt 0.562500 0.500000
vt 0.531250 1.000000
vt 0.531250 0.500000
vt 0.500000 1.000000
vt 0.500000 0.500000
vt 0.468750 1.000000
vt 0.468750 0.500000
vt 0.437500 1.000000
vt 0.437500 0.500000
vt 0.406250 1.000000
vt 0.406250 0.500000
vt 0.375000 1.000000
vt 0.375000 0.500000
vt 0.343750 1.000000
vt 0.343750 0.500000
vt 0.312500 1.000000
vt 0.312500 0.500000
vt 0.281250 1.000000
vt 0.281250 0.500000
vt 0.250000 1.000000
vt 0.250000 0.500000
vt 0.218750 1.000000
vt 0.218750 0.500000
vt 0.187500 1.000000
vt 0.187500 0.500000
vt 0.156250 1.000000
vt 0.156250 0.500000
vt 0.125000 1.000000
vt 0.125000 0.500000
vt 0.093750 1.000000
vt 0.093750 0.500000
vt 0.062500 1.000000
vt 0.062500 0.500000
vt 0.296822 0.485388
vt 0.250000 0.490000
vt 0.203178 0.485388
vt 0.158156 0.471731
vt 0.116663 0.449553
vt 0.080294 0.419706
vt 0.050447 0.383337
vt 0.028269 0.341844
vt 0.014612 0.296822
vt 0.010000 0.250000
vt 0.014612 0.203178
vt 0.028269 0.158156
vt 0.050447 0.116663
vt 0.080294 0.080294
vt 0.116663 0.050447
vt 0.158156 0.028269
vt 0.203178 0.014612
vt 0.250000 0.010000
vt 0.296822 0.014612
vt 0.341844 0.028269
vt 0.383337 0.050447
vt 0.419706 0.080294
vt 0.449553 0.116663
vt 0.471731 0.158156
vt 0.485388 0.203178
vt 0.490000 0.250000
vt 0.485388 0.296822
vt 0.471731 0.341844
vt 0.449553 0.383337
vt 0.419706 0.419706
vt 0.383337 0.449553
vt 0.341844 0.471731
vt 0.031250 1.000000
vt 0.031250 0.500000
vt 0.000000 1.000000
vt 0.000000 0.500000
vt 0.750000 0.490000
vt 0.796822 0.485388
vt 0.841844 0.471731
vt 0.883337 0.449553
vt 0.919706 0.419706
vt 0.949553 0.383337
vt 0.971731 0.341844
vt 0.985388 0.296822
vt 0.990000 0.250000
vt 0.985388 0.203178
vt 0.971731 0.158156
vt 0.949553 0.116663
vt 0.919706 0.080294
vt 0.883337 0.050447
vt 0.841844 0.028269
vt 0.796822 0.014612
vt 0.750000 0.010000
vt 0.703178 0.014612
vt 0.658156 0.028269
vt 0.616663 0.050447
vt 0.580294 0.080294
vt 0.550447 0.116663
vt 0.528269 0.158156
vt 0.514612 0.203178
vt 0.510000 0.250000
vt 0.514612 0.296822
vt 0.528269 0.341844
vt 0.550447 0.383337
vt 0.580294 0.419706
vt 0.616663 0.449553
vt 0.658156 0.471731
vt 0.703178 0.485388
vn 0.9958 -0.0219 0.0894
vn 0.9590 -0.0287 0.2819
vn 0.8854 -0.0344 0.4635
vn 0.7778 -0.0387 0.6273
vn 0.6403 -0.0416 0.7670
vn 0.4782 -0.0429 0.8772
vn 0.2978 -0.0425 0.9537
vn 0.1058 -0.0405 0.9936
vn -0.0902 -0.0369 0.9952
vn -0.2827 -0.0319 0.9587
vn -0.4644 -0.0257 0.8853
vn -0.6282 -0.0185 0.7778
vn -0.7679 -0.0106 0.6405
vn -0.8780 -0.0023 0.4786
vn -0.9545 0.0061 0.2983
vn -0.9942 0.0143 0.1065
vn -0.9958 0.0219 -0.0894
vn -0.9590 0.0287 -0.2819
vn -0.8854 0.0344 -0.4635
vn -0.7778 0.0387 -0.6273
vn -0.6403 0.0416 -0.7670
vn -0.4782 0.0429 -0.8772
vn -0.2978 0.0425 -0.9537
vn -0.1058 0.0405 -0.9936
vn 0.0902 0.0369 -0.9952
vn 0.2827 0.0319 -0.9587
vn 0.4644 0.0257 -0.8853
vn 0.6282 0.0185 -0.7778
vn 0.7679 0.0106 -0.6405
vn 0.8780 0.0023 -0.4786
vn 0.0185 0.9991 0.0387
vn 0.9545 -0.0061 -0.2983
vn 0.9942 -0.0143 -0.1065
vn -0.0185 -0.9991 -0.0387
usemtl None
s 1
f 1/1/1 2/2/1 4/3/1 3/4/1
f 3/4/2 4/3/2 6/5/2 5/6/2
f 5/6/3 6/5/3 8/7/3 7/8/3
f 7/8/4 8/7/4 10/9/4 9/10/4
f 9/10/5 10/9/5 12/11/5 11/12/5
f 11/12/6 12/11/6 14/13/6 13/14/6
f 13/14/7 14/13/7 16/15/7 15/16/7
f 15/16/8 16/15/8 18/17/8 17/18/8
f 17/18/9 18/17/9 20/19/9 19/20/9
f 19/20/10 20/19/10 22/21/10 21/22/10
f 21/22/11 22/21/11 24/23/11 23/24/11
f 23/24/12 24/23/12 26/25/12 25/26/12
f 25/26/13 26/25/13 28/27/13 27/28/13
f 27/28/14 28/27/14 30/29/14 29/30/14
f 29/30/15 30/29/15 32/31/15 31/32/15
f 31/32/16 32/31/16 34/33/16 33/34/16
f 33/34/17 34/33/17 36/35/17 35/36/17
f 35/36/18 36/35/18 38/37/18 37/38/18
f 37/38/19 38/37/19 40/39/19 39/40/19
f 39/40/20 40/39/20 42/41/20 41/42/20
f 41/42/21 42/41/21 44/43/21 43/44/21
f 43/44/22 44/43/22 46/45/22 45/46/22
f 45/46/23 46/45/23 48/47/23 47/48/23
f 47/48/24 48/47/24 50/49/24 49/50/24
f 49/50/25 50/49/25 52/51/25 51/52/25
f 51/52/26 52/51/26 54/53/26 53/54/26
f 53/54/27 54/53/27 56/55/27 55/56/27
f 55/56/28 56/55/28 58/57/28 57/58/28
f 57/58/29 58/57/29 60/59/29 59/60/29
f 59/60/30 60/59/30 62/61/30 61/62/30
f 4/63/31 2/64/31 64/65/31 62/66/31 60/67/31 58/68/31 56/69/31 54/70/31 52/71/31 50/72/31 48/73/31 46/74/31 44/75/31 42/76/31 40/77/31 38/78/31 36/79/31 34/80/31 32/81/31 30/82/31 28/83/31 26/84/31 24/85/31 22/86/31 20/87/31 18/88/31 16/89/31 14/90/31 12/91/31 10/92/31 8/93/31 6/94/31
f 61/62/32 62/61/32 64/95/32 63/96/32
f 63/96/33 64/95/33 2/97/33 1/98/33
f 1/99/34 3/100/34 5/101/34 7/102/34 9/103/34 11/104/34 13/105/34 15/106/34 17/107/34 19/108/34 21/109/34 23/110/34 25/111/34 27/112/34 29/113/34 31/114/34 33/115/34 35/116/34 37/117/34 39/118/34 41/119/34 43/120/34 45/121/34 47/122/34 49/123/34 51/124/34 53/125/34 55/126/34 57/127/34 59/128/34 61/129/34 63/130/34
