# Blender v2.83.5 OBJ File: ''
# www.blender.org
mtllib Connector_Speaker_Tweeter.mtl
o Connector_Speaker_Tweeter_Cube.017
v 0.013714 0.279734 0.292994
v 0.015341 0.275260 0.292991
v 0.013714 0.279734 0.294341
v 0.015342 0.275259 0.294339
v 0.016160 0.280623 0.294341
v 0.017788 0.276149 0.294339
v 0.015342 0.275257 0.298383
v 0.016161 0.280621 0.298385
v 0.013715 0.279732 0.298385
v 0.017788 0.276147 0.298383
v 0.015179 0.275707 0.292991
v 0.017625 0.276596 0.294339
v 0.015179 0.275706 0.294339
v 0.017626 0.276594 0.298383
v 0.015180 0.275705 0.298383
v 0.013714 0.279734 0.294746
v 0.017788 0.276148 0.294743
v 0.015342 0.275259 0.294743
v 0.016161 0.280623 0.294746
v 0.015179 0.275706 0.294744
v 0.017625 0.276596 0.294744
v 0.015342 0.275257 0.298019
v 0.016161 0.280621 0.298021
v 0.015180 0.275705 0.298019
v 0.013715 0.279732 0.298021
v 0.017788 0.276147 0.298019
v 0.017626 0.276594 0.298019
v 0.014477 0.280009 0.298385
v 0.014476 0.280011 0.292994
v 0.014476 0.280011 0.294341
v 0.015941 0.275984 0.294339
v 0.015942 0.275982 0.298383
v 0.015941 0.275984 0.292991
v 0.017001 0.276367 0.298019
v 0.017000 0.276368 0.294744
v 0.015535 0.280396 0.294746
v 0.015536 0.280394 0.298021
v 0.016373 0.276141 0.292991
v 0.016536 0.275694 0.292991
v 0.016536 0.275693 0.294339
v 0.016537 0.275691 0.298383
v 0.016373 0.276141 0.294339
v 0.016374 0.276139 0.298383
v 0.017000 0.276368 0.294983
v 0.013715 0.279733 0.294985
v 0.017788 0.276148 0.294983
v 0.017625 0.276596 0.294983
v 0.015342 0.275259 0.294983
v 0.015179 0.275706 0.294983
v 0.015535 0.280396 0.294985
v 0.015342 0.275259 0.295287
v 0.015179 0.275706 0.295287
v 0.015536 0.280395 0.295289
v 0.017000 0.276368 0.295287
v 0.013715 0.279733 0.295289
v 0.017788 0.276148 0.295287
v 0.017625 0.276596 0.295287
v 0.015081 0.280229 0.298021
v 0.015080 0.280230 0.294746
v 0.015080 0.280230 0.294985
v 0.015080 0.280230 0.295289
v 0.014193 0.279907 0.294985
v 0.014193 0.279907 0.295289
v 0.014193 0.279906 0.298021
v 0.014192 0.279907 0.294746
v 0.015342 0.275258 0.295560
v 0.015179 0.275706 0.295560
v 0.015536 0.280395 0.295562
v 0.017000 0.276368 0.295560
v 0.013715 0.279733 0.295562
v 0.017788 0.276148 0.295560
v 0.017625 0.276595 0.295560
v 0.015080 0.280230 0.295562
v 0.014193 0.279907 0.295562
v 0.015342 0.275258 0.295806
v 0.015179 0.275706 0.295806
v 0.015536 0.280395 0.295808
v 0.017000 0.276368 0.295806
v 0.013715 0.279733 0.295808
v 0.017788 0.276148 0.295806
v 0.017625 0.276595 0.295806
v 0.015080 0.280230 0.295808
v 0.014193 0.279907 0.295808
v 0.015342 0.275258 0.296138
v 0.015179 0.275706 0.296138
v 0.015536 0.280395 0.296140
v 0.017000 0.276368 0.296138
v 0.013715 0.279733 0.296140
v 0.017788 0.276148 0.296138
v 0.017625 0.276595 0.296138
v 0.015080 0.280230 0.296140
v 0.014193 0.279907 0.296140
v 0.015342 0.275258 0.296420
v 0.015179 0.275705 0.296420
v 0.015536 0.280395 0.296422
v 0.017000 0.276368 0.296420
v 0.013715 0.279733 0.296422
v 0.017788 0.276148 0.296420
v 0.017625 0.276595 0.296420
v 0.015080 0.280229 0.296422
v 0.014193 0.279907 0.296422
v 0.015342 0.275258 0.296819
v 0.015179 0.275705 0.296820
v 0.015536 0.280395 0.296822
v 0.017000 0.276367 0.296820
v 0.013715 0.279732 0.296822
v 0.017788 0.276147 0.296819
v 0.017625 0.276595 0.296820
v 0.015081 0.280229 0.296822
v 0.014193 0.279906 0.296822
v 0.015342 0.275258 0.297119
v 0.015179 0.275705 0.297120
v 0.015536 0.280395 0.297122
v 0.017000 0.276367 0.297120
v 0.013715 0.279732 0.297122
v 0.017788 0.276147 0.297119
v 0.017625 0.276595 0.297120
v 0.015081 0.280229 0.297122
v 0.014193 0.279906 0.297122
v 0.015342 0.275258 0.297434
v 0.015179 0.275705 0.297434
v 0.015536 0.280394 0.297437
v 0.017000 0.276367 0.297434
v 0.013715 0.279732 0.297437
v 0.017788 0.276147 0.297434
v 0.017626 0.276595 0.297434
v 0.015081 0.280229 0.297437
v 0.014193 0.279906 0.297437
v 0.015342 0.275257 0.297726
v 0.015180 0.275705 0.297727
v 0.015536 0.280394 0.297729
v 0.017000 0.276367 0.297727
v 0.013715 0.279732 0.297729
v 0.017788 0.276147 0.297726
v 0.017626 0.276594 0.297727
v 0.015081 0.280229 0.297729
v 0.014193 0.279906 0.297729
v 0.015285 0.279668 0.295289
v 0.015285 0.279668 0.294985
v 0.014397 0.279345 0.294985
v 0.014397 0.279345 0.295289
v 0.015285 0.279668 0.295808
v 0.015285 0.279668 0.295562
v 0.014397 0.279345 0.295808
v 0.014397 0.279345 0.295562
v 0.015285 0.279667 0.296422
v 0.015285 0.279668 0.296140
v 0.014397 0.279345 0.296422
v 0.014397 0.279345 0.296140
v 0.015285 0.279667 0.297121
v 0.015285 0.279667 0.296822
v 0.014397 0.279344 0.297121
v 0.014397 0.279344 0.296822
v 0.015285 0.279667 0.297729
v 0.015285 0.279667 0.297436
v 0.014397 0.279344 0.297729
v 0.014397 0.279344 0.297436
v 0.016801 0.276915 0.296420
v 0.017426 0.277143 0.296420
v 0.016801 0.276915 0.296138
v 0.017426 0.277143 0.296138
v 0.017000 0.276368 0.296420
v 0.017625 0.276595 0.296420
v 0.017000 0.276368 0.296138
v 0.017625 0.276595 0.296138
vt 0.810000 0.500000
vt 0.825000 0.500000
vt 0.825000 0.750000
vt 0.810000 0.750000
vt 0.600000 0.935000
vt 0.625000 0.935000
vt 0.625000 0.950000
vt 0.600000 0.950000
vt 0.600000 0.250000
vt 0.625000 0.250000
vt 0.625000 0.300000
vt 0.600000 0.300000
vt 0.311500 0.500000
vt 0.325000 0.500000
vt 0.325000 0.750000
vt 0.311500 0.750000
vt 0.600000 0.436500
vt 0.625000 0.436500
vt 0.625000 0.450000
vt 0.600000 0.450000
vt 0.375000 0.436500
vt 0.375000 0.450000
vt 0.375000 0.250000
vt 0.375000 0.300000
vt 0.375000 0.935000
vt 0.375000 0.950000
vt 0.375000 0.813500
vt 0.600000 0.813500
vt 0.600000 0.813500
vt 0.375000 0.813500
vt 0.375000 0.908831
vt 0.600000 0.926113
vt 0.600000 0.935000
vt 0.375000 0.935000
vt 0.600000 0.926113
vt 0.600000 0.315000
vt 0.375000 0.315000
vt 0.625000 0.315000
vt 0.175000 0.500000
vt 0.190000 0.500000
vt 0.190000 0.750000
vt 0.175000 0.750000
vt 0.625000 0.926113
vt 0.801113 0.500000
vt 0.801113 0.750000
vt 0.675000 0.500000
vt 0.688500 0.500000
vt 0.688500 0.750000
vt 0.675000 0.750000
vt 0.600000 0.800000
vt 0.625000 0.800000
vt 0.625000 0.813500
vt 0.375000 0.800000
vt 0.375000 0.430172
vt 0.600000 0.425960
vt 0.625000 0.425756
vt 0.375000 0.950000
vt 0.600000 0.950000
vt 0.600000 1.000000
vt 0.375000 1.000000
vt 0.375000 0.800000
vt 0.600000 0.800000
vt 0.600000 0.950000
vt 0.625000 0.950000
vt 0.625000 1.000000
vt 0.600000 1.000000
vt 0.600000 0.800000
vt 0.625000 0.800000
vt 0.375000 0.767363
vt 0.375000 0.775640
vt 0.375000 0.756152
vt 0.375000 0.886922
vt 0.625000 0.323887
vt 0.600000 0.323887
vt 0.375000 0.341169
vt 0.789852 0.500000
vt 0.789852 0.750000
vt 0.600000 0.914852
vt 0.625000 0.914852
vt 0.600000 0.914469
vt 0.375000 0.877406
vt 0.600000 0.903838
vt 0.600000 0.904690
vt 0.625000 0.904717
vt 0.779717 0.500000
vt 0.779717 0.750000
vt 0.375000 0.750775
vt 0.625000 0.335148
vt 0.600000 0.335531
vt 0.375000 0.363078
vt 0.375000 0.506019
vt 0.375000 0.500406
vt 0.375000 0.756152
vt 0.375000 0.500406
vt 0.375000 0.490239
vt 0.375000 0.477840
vt 0.375000 0.372497
vt 0.375000 0.380780
vt 0.375000 0.510573
vt 0.375000 0.510573
vt 0.375000 0.506019
vt 0.375000 0.746411
vt 0.375000 0.869060
vt 0.770595 0.500000
vt 0.770595 0.750000
vt 0.600000 0.895514
vt 0.625000 0.895592
vt 0.600000 0.894371
vt 0.625000 0.345331
vt 0.600000 0.346164
vt 0.375000 0.859145
vt 0.600000 0.881951
vt 0.600000 0.883146
vt 0.625000 0.883270
vt 0.758281 0.500000
vt 0.758281 0.750000
vt 0.375000 0.741754
vt 0.375000 0.515426
vt 0.375000 0.390671
vt 0.625000 0.354551
vt 0.600000 0.355636
vt 0.375000 0.398843
vt 0.375000 0.519271
vt 0.375000 0.733707
vt 0.375000 0.523802
vt 0.375000 0.523802
vt 0.375000 0.733707
vt 0.375000 0.738062
vt 0.375000 0.850965
vt 0.747814 0.500000
vt 0.747814 0.750000
vt 0.600000 0.872632
vt 0.625000 0.872792
vt 0.600000 0.871475
vt 0.625000 0.366958
vt 0.600000 0.368066
vt 0.375000 0.840735
vt 0.600000 0.856894
vt 0.600000 0.857802
vt 0.625000 0.857958
vt 0.732985 0.500000
vt 0.732985 0.750000
vt 0.375000 0.409101
vt 0.625000 0.377502
vt 0.600000 0.378554
vt 0.375000 0.416578
vt 0.375000 0.527043
vt 0.375000 0.490239
vt 0.375000 0.767363
vt 0.375000 0.730590
vt 0.375000 0.833287
vt 0.721864 0.500000
vt 0.721864 0.750000
vt 0.600000 0.846690
vt 0.625000 0.846834
vt 0.600000 0.846002
vt 0.625000 0.392322
vt 0.600000 0.393143
vt 0.375000 0.826062
vt 0.600000 0.834618
vt 0.600000 0.835057
vt 0.625000 0.835163
vt 0.710186 0.500000
vt 0.710186 0.750000
vt 0.375000 0.727608
vt 0.375000 0.530144
vt 0.375000 0.423843
vt 0.625000 0.403415
vt 0.600000 0.404042
vt 0.375000 0.532881
vt 0.375000 0.730590
vt 0.375000 0.527043
vt 0.375000 0.724971
vt 0.375000 0.819781
vt 0.699343 0.500000
vt 0.699343 0.750000
vt 0.600000 0.824279
vt 0.625000 0.824332
vt 0.600000 0.824059
vt 0.625000 0.415013
vt 0.600000 0.415419
vt 0.375000 0.722334
vt 0.375000 0.535617
vt 0.375000 0.746411
vt 0.375000 0.750775
vt 0.375000 0.519271
vt 0.375000 0.738062
vt 0.375000 0.741754
vt 0.375000 0.515426
vt 0.375000 0.532881
vt 0.375000 0.724971
vt 0.375000 0.727608
vt 0.375000 0.530144
vt 0.375000 0.000000
vt 0.625000 0.000000
vt 0.625000 0.250000
vt 0.375000 0.250000
vt 0.625000 0.500000
vt 0.375000 0.500000
vt 0.625000 0.750000
vt 0.375000 0.750000
vt 0.625000 1.000000
vt 0.375000 1.000000
vt 0.125000 0.500000
vt 0.125000 0.750000
vt 0.875000 0.500000
vt 0.875000 0.750000
vn 0.3417 -0.9398 -0.0005
vn 0.3418 -0.9398 -0.0005
vn 0.9398 0.3418 0.0000
vn -0.9398 -0.3418 0.0000
vn -0.3418 0.9398 0.0005
vn -0.9398 -0.3417 -0.0000
vn -0.0002 0.0005 -1.0000
vn -0.3418 0.9398 0.0006
vn -0.3417 0.9398 0.0006
vn 0.0002 -0.0005 1.0000
vn 0.3418 -0.9398 -0.0006
vn 0.9398 0.3417 0.0000
vn -0.3418 0.9398 0.0007
vn -0.3418 0.9398 0.0004
vn -0.3417 0.9398 0.0005
usemtl None
s 1
f 18/1/1 4/2/2 6/3/2 17/4/1
f 21/5/3 17/6/3 6/7/3 12/8/3
f 11/9/4 2/10/4 4/11/4 13/12/4
f 25/13/5 9/14/5 8/15/5 23/16/5
f 24/17/4 22/18/4 7/19/6 15/20/4
f 25/21/4 24/17/4 15/20/4 9/22/4
f 1/23/4 11/9/4 13/12/4 3/24/4
f 19/25/3 21/5/3 12/8/3 5/26/3
f 23/27/7 27/28/7 34/29/7 37/30/7
f 50/31/3 44/32/3 35/33/3 36/34/3
f 47/35/8 21/5/9 35/33/9 44/32/8
f 21/5/10 19/25/10 36/34/10 35/33/10
f 3/24/4 13/12/4 20/36/4 16/37/4
f 13/12/4 4/11/4 18/38/4 20/36/4
f 3/39/8 16/40/8 19/41/8 5/42/8
f 47/35/3 46/43/3 17/6/3 21/5/3
f 48/44/2 18/1/1 17/4/1 46/45/2
f 7/46/11 22/47/2 26/48/2 10/49/11
f 14/50/3 10/51/12 26/52/3 27/28/3
f 8/53/3 14/50/3 27/28/3 23/27/3
f 133/54/4 130/55/4 24/17/4 25/21/4
f 130/55/4 129/56/4 22/18/4 24/17/4
f 30/57/3 31/58/3 33/59/3 29/60/3
f 14/50/10 8/53/10 28/61/10 32/62/10
f 5/26/7 12/8/7 31/58/7 30/57/7
f 42/63/3 40/64/3 39/65/3 38/66/3
f 10/51/10 14/50/10 43/67/10 41/68/10
f 12/8/7 6/7/7 40/64/7 42/63/7
f 9/22/10 15/20/10 32/62/10 28/61/10
f 15/20/10 7/19/10 41/68/10 43/67/10
f 60/69/13 50/31/13 36/34/8 59/70/8
f 3/24/5 30/57/5 29/60/5 1/23/5
f 11/9/7 1/23/7 29/60/7 33/59/7
f 33/59/5 31/58/5 42/63/5 38/66/5
f 2/10/2 39/65/2 40/64/2 4/11/2
f 2/10/7 11/9/7 38/66/7 39/65/7
f 61/71/5 53/72/5 50/31/13 60/69/13
f 20/36/4 18/38/4 48/73/4 49/74/4
f 16/37/4 20/36/4 49/74/4 45/75/4
f 51/76/2 48/44/2 46/45/2 56/77/2
f 57/78/3 56/79/3 46/43/3 47/35/3
f 57/78/5 47/35/8 44/32/8 54/80/5
f 53/72/12 54/80/12 44/32/3 50/31/3
f 68/81/3 69/82/3 54/80/12 53/72/12
f 72/83/5 57/78/5 54/80/5 69/82/5
f 72/83/3 71/84/3 56/79/3 57/78/3
f 66/85/2 51/76/2 56/77/2 71/86/2
f 73/87/14 68/81/14 53/72/5 61/71/5
f 49/74/4 48/73/4 51/88/4 52/89/4
f 45/75/4 49/74/4 52/89/4 55/90/6
f 74/91/5 73/87/14 61/71/5 63/92/5
f 63/92/7 61/71/7 138/93/7 141/94/7
f 62/95/8 60/69/13 59/70/8 65/96/8
f 45/75/8 62/95/8 65/96/8 16/37/5
f 55/90/8 63/92/5 62/95/8 45/75/8
f 70/97/5 74/91/5 63/92/5 55/90/8
f 79/98/5 83/99/5 74/91/5 70/97/5
f 74/91/12 83/99/12 144/100/12 145/101/12
f 82/102/5 77/103/5 68/81/14 73/87/14
f 75/104/2 66/85/2 71/86/2 80/105/2
f 81/106/3 80/107/3 71/84/3 72/83/3
f 81/106/8 72/83/5 69/82/5 78/108/8
f 77/103/3 78/108/3 69/82/3 68/81/3
f 52/89/4 51/88/4 66/109/6 67/110/4
f 55/90/6 52/89/4 67/110/4 70/97/4
f 86/111/3 87/112/3 78/108/3 77/103/3
f 90/113/5 81/106/8 78/108/8 87/112/5
f 90/113/3 89/114/3 80/107/3 81/106/3
f 84/115/2 75/104/2 80/105/2 89/116/2
f 91/117/5 86/111/5 77/103/5 82/102/5
f 92/118/5 91/117/5 82/102/5 83/99/5
f 88/119/5 92/118/5 83/99/5 79/98/5
f 67/110/4 66/109/6 75/120/4 76/121/4
f 70/97/4 67/110/4 76/121/4 79/98/4
f 97/122/14 101/123/5 92/118/5 88/119/5
f 109/124/10 110/125/10 153/126/10 151/127/10
f 100/128/5 95/129/5 86/111/5 91/117/5
f 93/130/2 84/115/2 89/116/2 98/131/2
f 99/132/3 98/133/3 89/114/3 90/113/3
f 99/132/5 90/113/5 87/112/5 96/134/5
f 95/129/3 96/134/3 87/112/3 86/111/3
f 76/121/4 75/120/4 84/135/4 85/136/4
f 79/98/4 76/121/4 85/136/4 88/119/4
f 104/137/3 105/138/3 96/134/3 95/129/3
f 108/139/5 99/132/5 96/134/5 105/138/5
f 108/139/3 107/140/3 98/133/3 99/132/3
f 102/141/2 93/130/2 98/131/2 107/142/2
f 109/124/5 104/137/5 95/129/5 100/128/5
f 110/125/5 109/124/5 100/128/5 101/123/5
f 106/143/5 110/125/5 101/123/5 97/122/14
f 85/136/4 84/135/4 93/144/4 94/145/4
f 88/119/4 85/136/4 94/145/4 97/122/4
f 115/146/9 119/147/8 110/125/5 106/143/5
f 60/69/10 62/95/10 140/148/10 139/149/10
f 118/150/8 113/151/5 104/137/5 109/124/5
f 111/152/2 102/141/2 107/142/2 116/153/2
f 117/154/3 116/155/3 107/140/3 108/139/3
f 117/154/15 108/139/5 105/138/5 114/156/15
f 113/151/3 114/156/3 105/138/3 104/137/3
f 94/145/4 93/144/4 102/157/4 103/158/4
f 97/122/4 94/145/4 103/158/4 106/143/4
f 122/159/3 123/160/3 114/156/3 113/151/3
f 126/161/5 117/154/15 114/156/15 123/160/5
f 126/161/3 125/162/3 116/155/3 117/154/3
f 120/163/1 111/152/2 116/153/2 125/164/1
f 127/165/8 122/159/5 113/151/5 118/150/8
f 128/166/15 127/165/8 118/150/8 119/147/8
f 124/167/15 128/166/15 119/147/8 115/146/9
f 103/158/4 102/157/4 111/168/4 112/169/4
f 106/143/4 103/158/4 112/169/4 115/146/4
f 133/54/5 137/170/5 128/166/15 124/167/15
f 119/147/7 118/150/7 150/171/7 152/172/7
f 136/173/8 131/174/8 122/159/5 127/165/8
f 129/175/2 120/163/1 125/164/1 134/176/2
f 135/177/3 134/178/3 125/162/3 126/161/3
f 135/177/5 126/161/5 123/160/5 132/179/5
f 131/174/3 132/179/3 123/160/3 122/159/3
f 112/169/4 111/168/4 120/180/4 121/181/4
f 115/146/4 112/169/4 121/181/4 124/167/4
f 37/30/3 34/29/3 132/179/3 131/174/3
f 27/28/9 135/177/5 132/179/5 34/29/9
f 27/28/3 26/52/3 134/178/3 135/177/3
f 22/47/2 129/175/2 134/176/2 26/48/2
f 58/182/8 37/30/13 131/174/8 136/173/8
f 64/183/5 58/182/8 136/173/8 137/170/5
f 25/21/8 64/183/5 137/170/5 133/54/5
f 121/181/4 120/180/4 129/56/4 130/55/4
f 124/167/4 121/181/4 130/55/4 133/54/4
f 141/94/8 138/93/8 139/149/8 140/148/8
f 144/100/8 142/184/8 143/185/8 145/101/8
f 148/186/15 146/187/15 147/188/15 149/189/15
f 152/172/5 150/171/5 151/127/5 153/126/5
f 156/190/15 154/191/15 155/192/15 157/193/15
f 101/123/7 100/128/7 146/187/7 148/186/7
f 91/117/10 92/118/10 149/189/10 147/188/10
f 83/99/7 82/102/7 142/184/7 144/100/7
f 73/87/10 74/91/10 145/101/10 143/185/10
f 136/173/6 127/165/6 155/192/6 154/191/6
f 128/166/12 137/170/12 156/190/12 157/193/12
f 118/150/6 109/124/6 151/127/6 150/171/6
f 62/95/3 63/92/3 141/94/3 140/148/3
f 61/71/4 60/69/4 139/149/4 138/93/4
f 110/125/3 119/147/3 152/172/3 153/126/3
f 100/128/4 91/117/4 147/188/4 146/187/4
f 137/170/7 136/173/7 154/191/7 156/190/7
f 127/165/10 128/166/10 157/193/10 155/192/10
f 82/102/6 73/87/6 143/185/6 142/184/6
f 92/118/3 101/123/3 148/186/3 149/189/3
f 158/194/5 159/195/5 161/196/5 160/197/5
f 160/197/7 161/196/7 165/198/7 164/199/7
f 164/199/2 165/198/2 163/200/2 162/201/2
f 162/201/10 163/200/10 159/202/10 158/203/10
f 160/204/4 164/199/4 162/201/4 158/205/4
f 165/198/3 161/206/3 159/207/3 163/200/3
