# Blender v2.83.5 OBJ File: ''
# www.blender.org
mtllib Screw_Cover_Armrest.mtl
o Screw_Cover_Armrest_Cube.010
v -0.026289 -0.021411 -0.090718
v -0.023782 -0.021577 -0.088217
v -0.026166 -0.021462 -0.089945
v -0.025810 -0.021508 -0.089248
v -0.025255 -0.021545 -0.088695
v -0.024557 -0.021569 -0.088340
v -0.023782 -0.020249 -0.108227
v -0.026289 -0.020415 -0.105726
v -0.024557 -0.020257 -0.108104
v -0.025255 -0.020281 -0.107749
v -0.025810 -0.020318 -0.107196
v -0.026166 -0.020364 -0.106498
v -0.016235 -0.020415 -0.105726
v -0.018742 -0.020249 -0.108227
v -0.016358 -0.020364 -0.106498
v -0.016714 -0.020318 -0.107196
v -0.017268 -0.020281 -0.107749
v -0.017967 -0.020257 -0.108104
v -0.018742 -0.021577 -0.088217
v -0.016235 -0.021411 -0.090718
v -0.017967 -0.021569 -0.088340
v -0.017268 -0.021545 -0.088695
v -0.016714 -0.021508 -0.089248
v -0.016358 -0.021462 -0.089945
v -0.023730 -0.022646 -0.088954
v -0.025624 -0.022520 -0.090844
v -0.024349 -0.022639 -0.089051
v -0.024860 -0.022622 -0.089311
v -0.025266 -0.022595 -0.089716
v -0.025526 -0.022561 -0.090227
v -0.025624 -0.021532 -0.105747
v -0.023730 -0.021406 -0.107638
v -0.025526 -0.021491 -0.106365
v -0.025266 -0.021457 -0.106875
v -0.024860 -0.021430 -0.107280
v -0.024349 -0.021413 -0.107540
v -0.018794 -0.021406 -0.107638
v -0.016899 -0.021532 -0.105747
v -0.018175 -0.021413 -0.107540
v -0.017664 -0.021430 -0.107280
v -0.017258 -0.021457 -0.106875
v -0.016997 -0.021491 -0.106365
v -0.016899 -0.022520 -0.090844
v -0.018794 -0.022646 -0.088954
v -0.016997 -0.022561 -0.090227
v -0.017258 -0.022595 -0.089716
v -0.017664 -0.022622 -0.089311
v -0.018175 -0.022639 -0.089051
vt 0.375000 0.531250
vt 0.376530 0.521593
vt 0.380968 0.512882
vt 0.387882 0.505968
vt 0.396593 0.501529
vt 0.406250 0.500000
vt 0.593750 0.500000
vt 0.603407 0.501530
vt 0.612118 0.505968
vt 0.619032 0.512882
vt 0.623470 0.521593
vt 0.625000 0.531250
vt 0.625000 0.718750
vt 0.623471 0.728407
vt 0.619032 0.737118
vt 0.612118 0.744032
vt 0.603407 0.748470
vt 0.593750 0.750000
vt 0.406250 0.750000
vt 0.396593 0.748470
vt 0.387882 0.744032
vt 0.380968 0.737118
vt 0.376529 0.728407
vt 0.375000 0.718750
vt 0.389355 0.031902
vt 0.389952 0.024184
vt 0.393066 0.017809
vt 0.398367 0.012750
vt 0.405777 0.009502
vt 0.418023 0.008279
vt 0.581977 0.008279
vt 0.594223 0.009502
vt 0.601632 0.012750
vt 0.606934 0.017809
vt 0.610048 0.024184
vt 0.610645 0.031902
vt 0.610645 0.218098
vt 0.610048 0.225816
vt 0.606934 0.232191
vt 0.601632 0.237250
vt 0.594223 0.240498
vt 0.581977 0.241721
vt 0.418023 0.241721
vt 0.405777 0.240498
vt 0.398368 0.237250
vt 0.393066 0.232191
vt 0.389952 0.225816
vt 0.389355 0.218098
vt 0.625000 0.521593
vt 0.625000 0.728407
vt 0.625000 0.750000
vt 0.612118 0.750000
vt 0.603407 0.750000
vt 0.625000 0.500000
vt 0.612118 0.500000
vt 0.603407 0.500000
vt 0.375000 0.521593
vt 0.375000 0.512882
vt 0.375000 0.500000
vt 0.396593 0.500000
vt 0.375000 0.728407
vt 0.375000 0.737118
vt 0.375000 0.750000
vt 0.396593 0.750000
vn 0.0000 0.9978 0.0662
vn 0.0000 -0.9978 -0.0662
vn -0.8486 -0.5016 -0.1680
vn -0.8592 -0.5105 -0.0339
vn -0.7656 -0.5363 0.3554
vn -0.6076 -0.5507 0.5724
vn -0.3901 -0.5611 0.7300
vn -0.1344 -0.5666 0.8129
vn 0.0000 -0.5673 0.8235
vn -0.6076 -0.4703 -0.6401
vn -0.3901 -0.4598 -0.7978
vn -0.8486 -0.5194 0.1003
vn 0.7656 -0.4847 -0.4231
vn 0.6076 -0.4703 -0.6401
vn 0.3901 -0.4598 -0.7978
vn 0.1344 -0.4543 -0.8806
vn 0.0000 -0.4536 -0.8912
vn -0.1344 -0.4543 -0.8807
vn 0.8592 -0.5105 -0.0339
vn 0.8486 -0.5194 0.1003
vn 0.7656 -0.5363 0.3554
vn 0.6076 -0.5507 0.5724
vn 0.3901 -0.5611 0.7300
vn 0.8487 -0.5016 -0.1680
vn 0.1344 -0.5666 0.8129
vn -0.7656 -0.4847 -0.4231
usemtl Material.006
s 1
f 13/1/1 15/2/1 16/3/1 17/4/1 18/5/1 14/6/1 7/7/1 9/8/1 10/9/1 11/10/1 12/11/1 8/12/1 1/13/1 3/14/1 4/15/1 5/16/1 6/17/1 2/18/1 19/19/1 21/20/1 22/21/1 23/22/1 24/23/1 20/24/1
f 43/25/2 45/26/2 46/27/2 47/28/2 48/29/2 44/30/2 25/31/2 27/32/2 28/33/2 29/34/2 30/35/2 26/36/2 31/37/2 33/38/2 34/39/2 35/40/2 36/41/2 32/42/2 37/43/2 39/44/2 40/45/2 41/46/2 42/47/2 38/48/2
f 33/38/3 31/37/3 8/12/3 12/49/3
f 8/12/4 31/37/4 26/36/4 1/13/4
f 3/50/5 30/35/5 29/34/5 4/51/5
f 4/51/6 29/34/6 28/33/6 5/52/6
f 5/52/7 28/33/7 27/32/7 6/53/7
f 6/53/8 27/32/8 25/31/8 2/18/8
f 19/19/9 2/18/9 25/31/9 44/30/9
f 34/39/10 11/54/10 10/55/10 35/40/10
f 35/40/11 10/55/11 9/56/11 36/41/11
f 1/13/12 26/36/12 30/35/12 3/50/12
f 15/57/13 42/47/13 41/46/13 16/58/13
f 16/58/14 41/46/14 40/45/14 17/59/14
f 17/59/15 40/45/15 39/44/15 18/60/15
f 18/60/16 39/44/16 37/43/16 14/6/16
f 32/42/17 7/7/17 14/6/17 37/43/17
f 36/41/18 9/56/18 7/7/18 32/42/18
f 38/48/19 13/1/19 20/24/19 43/25/19
f 43/25/20 20/24/20 24/61/20 45/26/20
f 45/26/21 24/61/21 23/62/21 46/27/21
f 46/27/22 23/62/22 22/63/22 47/28/22
f 47/28/23 22/63/23 21/64/23 48/29/23
f 13/1/24 38/48/24 42/47/24 15/57/24
f 48/29/25 21/64/25 19/19/25 44/30/25
f 34/39/26 33/38/26 12/49/26 11/54/26
