# Blender v2.83.5 OBJ File: ''
# www.blender.org
mtllib Screw_Cover_Handle.mtl
o Screw_Cover_Handle_Cube.011
v -0.011368 0.112957 -0.023141
v -0.010332 0.084375 -0.023141
v -0.005899 0.083978 -0.006575
v -0.006174 0.083968 -0.011221
v -0.009213 0.084416 -0.022553
v -0.011368 0.112957 -0.023141
v -0.010249 0.112998 -0.022553
v -0.009248 0.113034 -0.021006
v -0.008441 0.112913 0.032787
v -0.007396 0.084074 0.032787
v -0.008230 0.083932 -0.022203
v -0.008210 0.084409 -0.021006
v -0.009212 0.084397 -0.022553
v -0.007358 0.084464 -0.018548
v -0.008382 0.112732 -0.018548
v -0.006667 0.084175 -0.015253
v -0.007676 0.112031 -0.015253
v -0.007165 0.111298 -0.011221
v -0.006871 0.110808 -0.006575
v -0.005847 0.084140 -0.001456
v -0.006807 0.110635 -0.001456
v -0.008850 0.113048 -0.019861
v -0.006402 0.084571 0.009571
v -0.007350 0.110715 0.009571
v -0.006016 0.084334 0.003981
v -0.006971 0.110679 0.003981
v -0.008687 0.110541 0.025234
v -0.008819 0.110386 0.026831
v -0.008895 0.110133 0.027829
v -0.008989 0.109503 0.029194
v -0.009052 0.108700 0.030259
v -0.009073 0.107722 0.030924
v -0.009068 0.106394 0.031424
v -0.009042 0.105193 0.031623
v -0.008972 0.103517 0.031523
v -0.008560 0.094262 0.030625
v -0.008390 0.091162 0.029959
v -0.008302 0.089838 0.029493
v -0.008199 0.088639 0.028795
v -0.008075 0.087516 0.027829
v -0.007943 0.086694 0.026631
v -0.007775 0.085999 0.024968
v -0.007532 0.085456 0.022372
v -0.007223 0.085117 0.018911
v -0.008162 0.084411 -0.021045
v -0.007590 0.085244 -0.021529
v -0.007611 0.112033 -0.015305
v -0.006996 0.111223 -0.015776
v -0.006485 0.110494 -0.011744
v -0.007084 0.111301 -0.011286
v -0.006780 0.110811 -0.006648
v -0.006191 0.110007 -0.007098
v -0.010278 0.112997 -0.022529
v -0.009570 0.112212 -0.023075
v -0.009249 0.113034 -0.021005
v -0.008568 0.112249 -0.021529
v -0.009176 0.084398 -0.022582
v -0.008592 0.085232 -0.023075
v -0.009181 0.084417 -0.022579
v -0.008594 0.085248 -0.023070
v -0.010326 0.084376 -0.023146
v -0.009712 0.085208 -0.023663
v -0.010689 0.112172 -0.023663
v -0.011368 0.112957 -0.023141
v -0.008204 0.112262 -0.020480
v -0.008829 0.113049 -0.019878
v -0.006084 0.083971 -0.011293
v -0.005553 0.084803 -0.011744
v -0.006046 0.085011 -0.015776
v -0.006589 0.084178 -0.015316
v -0.008337 0.112734 -0.018585
v -0.007702 0.111923 -0.019071
v -0.006737 0.085299 -0.019071
v -0.007294 0.084467 -0.018599
v -0.005800 0.083982 -0.006654
v -0.005278 0.084813 -0.007098
v -0.005226 0.084975 -0.001978
v -0.005742 0.084144 -0.001540
v -0.006708 0.110638 -0.001535
v -0.006128 0.109837 -0.001978
v -0.006291 0.084575 0.009481
v -0.005781 0.085406 0.009048
v -0.006670 0.109920 0.009048
v -0.007241 0.110719 0.009483
v -0.005908 0.084338 0.003894
v -0.005396 0.085170 0.003459
v -0.006291 0.109883 0.003459
v -0.006867 0.110683 0.003897
v -0.008002 0.109748 0.024649
v -0.008576 0.110546 0.025144
v -0.008095 0.109638 0.025773
v -0.008704 0.110391 0.026739
v -0.008140 0.109490 0.026359
v -0.008777 0.110137 0.027735
v -0.008212 0.109005 0.027409
v -0.008869 0.109508 0.029097
v -0.008261 0.108371 0.028249
v -0.008928 0.108704 0.030160
v -0.008280 0.107546 0.028810
v -0.008948 0.107726 0.030824
v -0.008275 0.106316 0.029273
v -0.008941 0.106399 0.031322
v -0.008250 0.105200 0.029459
v -0.008914 0.105197 0.031521
v -0.008183 0.103582 0.029362
v -0.008844 0.103521 0.031420
v -0.007772 0.094353 0.028466
v -0.008432 0.094267 0.030522
v -0.007605 0.091303 0.027811
v -0.008263 0.091167 0.029857
v -0.007522 0.090047 0.027370
v -0.008176 0.089842 0.029392
v -0.007426 0.088937 0.026723
v -0.008074 0.088643 0.028694
v -0.007316 0.087942 0.025867
v -0.007952 0.087521 0.027730
v -0.007208 0.087273 0.024892
v -0.007821 0.086699 0.026534
v -0.007075 0.086720 0.023569
v -0.007656 0.086003 0.024872
v -0.006868 0.086257 0.021355
v -0.007416 0.085461 0.022278
v -0.006573 0.085933 0.018048
v -0.007109 0.085121 0.018819
vt 0.706894 0.531552
vt 0.725128 0.531552
vt 0.725128 0.531552
vt 0.706894 0.531552
vt 0.625000 0.986336
vt 0.666039 0.907364
vt 0.340097 0.907364
vt 0.333961 0.907364
vt 0.375000 0.986336
vt 0.705832 0.830791
vt 0.301435 0.830791
vt 0.723229 0.797312
vt 0.737613 0.758944
vt 0.265819 0.758944
vt 0.625000 0.986336
vt 0.666039 0.907364
vt 0.756798 0.694007
vt 0.737613 0.758944
vt 0.756798 0.694007
vt 0.755950 0.531552
vt 0.740998 0.694007
vt 0.242786 0.694007
vt 0.204893 0.531552
vt 0.746560 0.531552
vt 0.746560 0.531552
vt 0.265819 0.758944
vt 0.301435 0.830791
vt 0.340097 0.907364
vt 0.231563 0.531552
vt 0.206999 0.531552
vt 0.227359 0.694007
vt 0.257734 0.531552
vt 0.773714 0.531552
vt 0.187484 0.531552
vt 0.687899 0.531552
vt 0.284738 0.531552
vt 0.629590 0.531552
vt 0.622019 0.531552
vt 0.615866 0.531552
vt 0.605190 0.531552
vt 0.594564 0.531552
vt 0.583971 0.531552
vt 0.570983 0.531552
vt 0.559925 0.531552
vt 0.545141 0.531552
vt 0.461508 0.531552
vt 0.431865 0.531552
vt 0.418441 0.531552
vt 0.405191 0.531552
vt 0.391206 0.531552
vt 0.378588 0.531552
vt 0.364695 0.531552
vt 0.347996 0.531552
vt 0.329586 0.531552
vt 0.284738 0.531552
vt 0.257734 0.531552
vt 0.329586 0.531552
vt 0.773714 0.531552
vt 0.206999 0.531552
vt 0.187484 0.531552
vt 0.333961 0.907364
vt 0.431865 0.531552
vt 0.418441 0.531552
vt 0.694403 0.830791
vt 0.312896 0.830791
vt 0.279364 0.758944
vt 0.723711 0.758944
vt 0.709364 0.800128
vt 0.405191 0.531552
vt 0.687899 0.531552
vt 0.629590 0.531552
vt 0.391206 0.531552
vt 0.378588 0.531552
vt 0.622019 0.531552
vt 0.227359 0.694007
vt 0.364695 0.531552
vt 0.615866 0.531552
vt 0.347996 0.531552
vt 0.605190 0.531552
vt 0.617924 0.986336
vt 0.382076 0.986336
vt 0.338443 0.873832
vt 0.349342 0.907364
vt 0.656820 0.907364
vt 0.705832 0.830791
vt 0.594564 0.531552
vt 0.231563 0.531552
vt 0.723229 0.797312
vt 0.583971 0.531552
vt 0.729977 0.531552
vt 0.223321 0.531552
vt 0.675276 0.531552
vt 0.692919 0.531552
vt 0.271577 0.531552
vt 0.297263 0.531552
vt 0.375000 0.986336
vt 0.570983 0.531552
vt 0.709822 0.531552
vt 0.246685 0.531552
vt 0.559925 0.531552
vt 0.338348 0.531552
vt 0.355543 0.531552
vt 0.369547 0.531552
vt 0.380568 0.531552
vt 0.391028 0.531552
vt 0.403856 0.531552
vt 0.416626 0.531552
vt 0.429873 0.531552
vt 0.460236 0.531552
vt 0.547261 0.531552
vt 0.562196 0.531552
vt 0.572910 0.531552
vt 0.585470 0.531552
vt 0.594786 0.531552
vt 0.603431 0.531552
vt 0.611709 0.531552
vt 0.615240 0.531552
vt 0.620288 0.531552
vt 0.545141 0.531552
vt 0.461508 0.531552
vn 0.0438 -0.9990 0.0095
vn 0.0438 -0.9990 0.0094
vn 0.4645 0.0168 -0.8854
vn 0.8386 0.0304 -0.5438
vn 0.9440 0.0342 -0.3282
vn -0.0363 0.9993 0.0001
vn -0.0362 0.9993 0.0000
vn -0.1123 -0.9766 -0.1837
vn -0.9922 -0.0360 0.1194
vn 0.0090 -0.9994 -0.0339
vn -0.0424 0.9991 -0.0077
vn -0.0280 0.9996 0.0103
vn 0.9993 0.0362 -0.0112
vn 0.9787 0.0355 -0.2021
vn 0.9989 0.0362 0.0298
vn 0.9922 0.0360 -0.1194
vn 0.9971 0.0361 0.0673
vn 0.9957 0.0361 0.0854
vn 0.9976 0.0362 -0.0592
vn -0.0741 0.9961 -0.0473
vn -0.0891 0.9938 -0.0660
vn -0.0460 -0.9937 -0.1020
vn 0.6259 0.0227 0.7796
vn -0.6155 0.2248 -0.7554
vn -0.9440 -0.0342 0.3282
vn -0.5908 0.3677 -0.7182
vn 0.0293 -0.9995 -0.0086
vn -0.5507 0.5084 -0.6620
vn -0.4574 0.7089 -0.5369
vn -0.0445 -0.9940 -0.1002
vn 0.0292 0.9963 0.0813
vn -0.3455 0.8529 -0.3913
vn -0.1702 -0.9520 -0.2546
vn -0.2104 0.9528 -0.2187
vn -0.3038 -0.8569 -0.4165
vn -0.4645 -0.0167 0.8854
vn -0.1224 0.9866 -0.1077
vn -0.0363 0.9993 0.0002
vn -0.4254 -0.7102 -0.5610
vn -0.0645 0.9975 -0.0291
vn -0.0665 0.9971 -0.0377
vn -0.0624 0.9973 -0.0394
vn -0.1192 -0.9741 -0.1922
vn -0.5450 -0.4635 -0.6987
vn -0.9976 -0.0362 0.0592
vn -0.9971 -0.0361 -0.0673
vn 0.6260 0.0227 0.7795
vn -0.5943 -0.2851 -0.7520
vn -0.0610 0.9977 -0.0309
vn -0.9993 -0.0362 0.0112
vn -0.6171 -0.1422 -0.7739
vn -0.9957 -0.0361 -0.0854
vn 0.0046 0.9987 0.0508
vn 0.0358 -0.9994 0.0003
vn -0.6269 0.0205 -0.7788
vn -0.9989 -0.0362 -0.0298
vn -0.0979 -0.9813 -0.1659
vn -0.6270 0.0476 -0.7776
vn -0.9787 -0.0355 0.2021
vn -0.6241 0.1312 -0.7703
vn -0.6527 -0.7170 0.2448
vn -0.7996 0.5864 0.1292
vn -0.8011 -0.5986 -0.0054
vn -0.8601 0.5081 -0.0446
vn -0.8158 -0.5780 -0.0194
vn -0.8319 0.5528 0.0489
vn -0.7555 0.6190 0.2146
vn -0.7807 -0.6238 0.0371
vn -0.3614 0.6602 0.6584
vn -0.8501 0.5265 -0.0076
vn -0.8068 -0.5907 -0.0107
vn -0.8108 -0.5852 -0.0089
vn -0.8115 -0.5843 -0.0081
vn -0.5483 -0.7447 0.3804
vn 0.6860 -0.0534 0.7256
vn -0.3165 -0.7089 0.6303
vn -0.6243 0.6694 0.4026
vn -0.8248 -0.5630 -0.0519
vn -0.8676 0.4906 -0.0805
vn -0.8311 -0.5508 -0.0770
vn -0.8405 -0.5284 -0.1196
vn -0.8660 -0.4653 -0.1830
vn -0.8949 -0.3788 -0.2358
vn -0.9183 -0.2887 -0.2707
vn -0.9380 -0.1812 -0.2956
vn -0.9456 -0.1182 -0.3032
vn -0.9493 -0.0720 -0.3059
vn -0.9517 -0.0212 -0.3063
vn -0.9518 -0.0168 -0.3062
vn -0.9518 -0.0171 -0.3062
vn -0.9519 -0.0127 -0.3061
vn -0.9522 0.0135 -0.3052
vn -0.9519 0.0437 -0.3033
vn -0.9500 0.0923 -0.2981
vn -0.9461 0.1453 -0.2895
vn -0.9345 0.2372 -0.2654
vn -0.9170 0.3268 -0.2285
vn -0.8932 0.4163 -0.1700
vn -0.8782 0.4620 -0.1235
vn -0.8720 0.4782 -0.1045
vn -0.8076 -0.5897 -0.0100
vn -0.7418 -0.6611 0.1128
vn -0.7325 0.6361 0.2427
vn -0.8386 -0.0304 0.5438
usemtl Material.007
s 1
f 26/1/1 21/2/2 79/3/2 88/4/2
f 6/5/3 7/6/3 13/7/3 5/8/3 2/9/3
f 7/6/4 8/10/4 12/11/4 13/7/4
f 8/10/5 22/12/5 15/13/5 14/14/5 12/11/5
f 7/6/6 6/5/7 64/15/7 53/16/6
f 17/17/8 15/13/8 71/18/8 47/19/8
f 49/20/9 48/21/9 69/22/9 68/23/9
f 21/2/10 19/24/10 51/25/10 79/3/10
f 12/11/11 14/14/11 74/26/11 45/27/11
f 13/7/12 12/11/12 45/27/12 57/28/12
f 21/2/13 20/29/13 3/30/13 19/24/13
f 17/17/14 16/31/14 14/14/14 15/13/14
f 26/1/15 25/32/15 20/29/15 21/2/15
f 18/33/16 4/34/16 16/31/16 17/17/16
f 24/35/17 23/36/17 25/32/17 26/1/17
f 23/36/18 24/35/18 27/37/18 28/38/18 29/39/18 30/40/18 31/41/18 32/42/18 33/43/18 34/44/18 35/45/18 36/46/18 37/47/18 38/48/18 39/49/18 40/50/18 41/51/18 42/52/18 43/53/18 44/54/18
f 19/24/19 3/30/19 4/34/19 18/33/19
f 25/32/20 23/36/20 81/55/20 85/56/20
f 23/36/21 44/54/21 124/57/21 81/55/21
f 19/24/22 18/33/22 50/58/22 51/25/22
f 4/34/7 3/30/7 75/59/7 67/60/7
f 5/8/23 13/7/23 57/28/23 59/61/23
f 38/48/24 37/47/24 110/62/24 112/63/24
f 56/64/25 46/65/25 73/66/25 72/67/25 65/68/25
f 39/49/26 38/48/26 112/63/26 114/69/26
f 27/37/27 24/35/27 84/70/27 90/71/27
f 40/50/28 39/49/28 114/69/28 116/72/28
f 24/35/1 26/1/1 88/4/2 84/70/1
f 41/51/29 40/50/29 116/72/29 118/73/29
f 28/38/30 27/37/30 90/71/30 92/74/30
f 14/14/31 16/31/31 70/75/31 74/26/31
f 42/52/32 41/51/32 118/73/32 120/76/32
f 29/39/33 28/38/33 92/74/33 94/77/33
f 43/53/34 42/52/34 120/76/34 122/78/34
f 30/40/35 29/39/35 94/77/35 96/79/35
f 63/80/36 62/81/36 60/82/36 58/83/36 54/84/36
f 44/54/37 43/53/37 122/78/37 124/57/37
f 8/10/38 7/6/6 53/16/6 55/85/38
f 31/41/39 30/40/39 96/79/39 98/86/39
f 20/29/40 25/32/41 85/56/41 78/87/42
f 15/13/43 22/12/43 66/88/43 71/18/43
f 32/42/44 31/41/44 98/86/44 100/89/44
f 52/90/45 49/20/45 68/23/45 76/91/45
f 83/92/46 87/93/46 86/94/46 82/95/46
f 6/5/47 2/9/47 61/96/47 62/81/47 63/80/47 64/15/47
f 33/43/48 32/42/48 100/89/48 102/97/48
f 3/30/49 20/29/40 78/87/42 75/59/49
f 80/98/50 52/90/50 76/91/50 77/99/50
f 34/44/51 33/43/51 102/97/51 104/100/51
f 82/95/52 123/101/52 121/102/52 119/103/52 117/104/52 115/105/52 113/106/52 111/107/52 109/108/52 107/109/52 105/110/52 103/111/52 101/112/52 99/113/52 97/114/52 95/115/52 93/116/52 91/117/52 89/118/52 83/92/52
f 16/31/53 4/34/53 67/60/53 70/75/53
f 22/12/54 8/10/54 55/85/54 66/88/54
f 35/45/55 34/44/55 104/100/55 106/119/55
f 87/93/56 80/98/56 77/99/56 86/94/56
f 18/33/57 17/17/57 47/19/57 50/58/57
f 2/9/7 5/8/7 59/61/7 61/96/7
f 36/46/58 35/45/58 106/119/58 108/120/58
f 48/21/59 72/67/59 73/66/59 69/22/59
f 37/47/60 36/46/60 108/120/60 110/62/60
f 66/88/61 55/85/61 56/64/61 65/68/61
f 68/23/62 69/22/62 70/75/62 67/60/62
f 48/21/63 49/20/63 50/58/63 47/19/63
f 86/94/64 77/99/64 78/87/64 85/56/64
f 80/98/65 87/93/65 88/4/65 79/3/65
f 67/60/66 75/59/66 76/91/66 68/23/66
f 69/22/67 73/66/67 74/26/67 70/75/67
f 72/67/68 48/21/68 47/19/68 71/18/68
f 61/96/69 59/61/69 60/82/69 62/81/69
f 77/99/70 76/91/70 75/59/70 78/87/70
f 52/90/71 80/98/72 79/3/72 51/25/73
f 55/85/74 53/16/74 54/84/74 56/64/74
f 59/61/75 57/28/75 58/83/75 60/82/75
f 53/16/76 64/15/76 63/80/76 54/84/76
f 46/65/77 58/83/77 57/28/77 45/27/77
f 87/93/78 83/92/78 84/70/78 88/4/78
f 82/95/79 86/94/79 85/56/79 81/55/79
f 83/92/80 89/118/80 90/71/80 84/70/80
f 89/118/81 91/117/81 92/74/81 90/71/81
f 91/117/82 93/116/82 94/77/82 92/74/82
f 93/116/83 95/115/83 96/79/83 94/77/83
f 95/115/84 97/114/84 98/86/84 96/79/84
f 97/114/85 99/113/85 100/89/85 98/86/85
f 99/113/86 101/112/86 102/97/86 100/89/86
f 101/112/87 103/111/87 104/100/87 102/97/87
f 103/111/88 105/110/89 106/119/90 104/100/88
f 105/110/89 107/109/91 108/120/91 106/119/90
f 107/109/92 109/108/92 110/62/92 108/120/92
f 109/108/93 111/107/93 112/63/93 110/62/93
f 111/107/94 113/106/94 114/69/94 112/63/94
f 113/106/95 115/105/95 116/72/95 114/69/95
f 115/105/96 117/104/96 118/73/96 116/72/96
f 117/104/97 119/103/97 120/76/97 118/73/97
f 119/103/98 121/102/98 122/78/98 120/76/98
f 121/102/99 123/101/99 124/57/99 122/78/99
f 123/101/100 82/95/100 81/55/100 124/57/100
f 49/20/101 52/90/71 51/25/73 50/58/101
f 65/68/102 72/67/102 71/18/102 66/88/102
f 73/66/103 46/65/103 45/27/103 74/26/103
f 54/84/104 58/83/104 46/65/104 56/64/104
